<?xml version="1.0" standalone="no"?>
<!DOCTYPE svg PUBLIC "-//W3C//DTD SVG 20010904//EN"
 "http://www.w3.org/TR/2001/REC-SVG-20010904/DTD/svg10.dtd">
<svg version="1.0" xmlns="http://www.w3.org/2000/svg"
 width="664.000000pt" height="384.800000pt" viewBox="0 0 664.000000 384.800000"
 preserveAspectRatio="xMidYMid meet">
<metadata>
Created by potrace 1.13, written by Peter Selinger 2001-2015
</metadata>
<g transform="translate(0.000000,384.800000) scale(0.080000,-0.080000)"
fill="#000000" stroke="none">
<path d="M88 4799 c-10 -5 -18 -6 -18 -2 0 4 -4 4 -8 -2 -4 -5 -17 -15 -29
-22 -17 -10 -23 -10 -26 0 -3 7 -6 -82 -6 -196 -1 -205 -1 -208 19 -197 25 13
25 26 3 39 -34 19 -3 23 79 12 82 -12 128 -27 128 -43 0 -4 -12 -8 -27 -8
l-28 0 25 -20 c19 -14 22 -22 13 -31 -8 -8 -18 -7 -42 7 l-30 18 -43 -40 c-24
-21 -56 -48 -71 -59 l-27 -20 0 -2117 0 -2118 1100 0 1100 0 0 24 c0 13 7 29
15 36 8 7 15 21 15 31 0 11 6 19 14 19 8 0 16 5 18 11 2 7 24 12 48 13 38 1
45 -2 46 -19 1 -11 2 -29 3 -40 2 -18 4 -17 26 8 14 15 25 35 25 43 0 23 54
17 84 -11 14 -13 26 -29 26 -35 0 -18 21 -11 60 20 39 31 60 38 60 20 0 -6 11
-8 25 -4 32 8 33 -15 6 -72 l-19 -39 26 -3 c15 -2 28 1 30 7 2 6 19 20 39 32
29 18 37 19 44 8 7 -12 9 -12 10 1 1 8 5 2 9 -15 l8 -30 1 28 c1 16 7 27 15
27 8 0 17 7 20 16 3 8 11 12 17 8 11 -6 9 -32 -6 -67 -7 -16 126 -17 2714 -17
l2721 0 0 2405 0 2405 -2116 0 c-1872 0 -2115 -2 -2104 -15 7 -8 10 -21 6 -30
-7 -18 -64 -14 -77 6 -7 11 -9 10 -9 -3 0 -14 -8 -18 -35 -18 -39 0 -55 21
-35 45 11 13 -57 15 -579 15 -564 0 -591 -1 -591 -18 0 -10 -6 -27 -14 -37
-20 -28 -10 -41 28 -37 23 3 35 -1 39 -11 8 -20 -20 -57 -43 -57 -12 0 -17 -5
-14 -13 3 -8 -4 -25 -16 -38 -20 -24 -20 -24 -36 -4 -11 14 -14 33 -11 62 4
36 1 42 -17 47 -33 9 -34 8 -34 -26 0 -43 -18 -88 -34 -88 -17 0 -54 56 -50
75 2 9 -5 15 -16 15 -27 0 -54 34 -50 62 3 20 9 23 43 23 40 0 62 16 50 35 -9
14 -2473 13 -2497 -1z m1550 -37 c15 -10 5 -42 -13 -42 -7 0 -12 11 -12 25 0
27 4 30 25 17z m279 -82 c-4 -34 -1 -45 19 -67 13 -14 22 -29 19 -33 -3 -4
-27 -8 -55 -8 -42 0 -50 3 -50 19 0 10 5 21 10 24 16 10 11 22 -11 28 -25 7
-20 30 7 36 10 2 25 12 32 22 22 32 35 23 29 -21z m1828 6 c8 -13 13 -31 9
-40 -4 -10 -1 -16 7 -16 17 0 49 -30 49 -46 0 -22 -44 -27 -86 -9 -31 13 -40
13 -43 3 -8 -23 -70 -80 -81 -73 -13 8 -13 75 0 75 6 0 4 10 -4 23 -32 49 10
90 49 47 20 -23 37 -11 49 33 8 33 30 35 51 3z m2975 16 c0 -4 -5 -13 -12 -20
-17 -17 2 -32 27 -22 11 5 14 9 8 9 -7 1 -13 10 -13 21 0 38 51 15 65 -29 7
-22 5 -23 -24 -19 -27 4 -31 2 -31 -19 0 -14 6 -23 15 -23 8 0 15 -7 15 -15 0
-8 7 -15 15 -15 8 0 15 -5 15 -11 0 -5 -4 -7 -10 -4 -6 4 -10 -6 -10 -22 0
-34 32 -67 49 -50 18 18 22 2 4 -22 -11 -17 -18 -20 -23 -11 -4 7 -13 9 -19 6
-8 -5 -4 -14 11 -26 13 -11 19 -19 14 -20 -6 0 -1 -7 10 -15 18 -14 18 -14 -6
-16 -14 -1 -37 -1 -52 0 -16 1 -28 -2 -28 -6 0 -15 23 -33 41 -33 14 0 17 -7
14 -30 -2 -17 -7 -35 -10 -40 -11 -17 -84 -31 -134 -25 -37 4 -51 2 -62 -11
-7 -8 -30 -24 -51 -35 -46 -24 -77 -79 -94 -169 -9 -49 -12 -56 -13 -29 -2 89
40 166 124 226 l29 21 -38 48 c-30 39 -37 56 -34 82 3 20 0 32 -8 32 -23 0
-47 51 -41 91 7 52 39 120 54 114 7 -2 25 7 39 20 29 27 44 32 44 15 0 -7 6
-7 20 0 11 6 17 16 14 25 -4 9 3 18 17 24 30 12 69 14 69 3z m-6017 -91 c6 -1
1 -8 -12 -15 l-24 -13 27 -7 c42 -11 32 -29 -13 -21 -35 6 -40 4 -46 -16 -21
-64 -95 -133 -119 -109 -10 10 15 100 37 128 6 8 5 17 -3 27 -10 12 -10 16 1
19 30 10 109 14 152 7z m2377 -26 c0 -9 6 -12 16 -8 14 5 16 2 10 -23 -9 -35
-17 -44 -23 -26 -3 7 -16 17 -29 22 -22 9 -23 12 -12 30 15 23 38 27 38 5z
m-87 -37 c32 -12 35 -34 6 -43 -19 -6 -19 -8 -4 -25 24 -26 13 -37 -40 -38
-50 0 -55 8 -25 38 16 16 18 25 10 40 -16 31 -13 53 8 45 9 -4 29 -12 45 -17z
m-727 -27 c4 -17 12 -32 20 -35 8 -3 14 -15 14 -27 0 -18 -5 -21 -30 -17 -27
4 -30 2 -30 -23 0 -36 -15 -44 -37 -22 -10 10 -31 24 -46 30 -15 7 -27 17 -27
22 0 10 34 21 68 21 17 0 22 6 22 28 0 27 15 52 32 52 5 0 11 -13 14 -29z
m3485 -74 c-4 -12 -6 -27 -4 -34 2 -6 -1 -14 -6 -18 -11 -6 34 -55 51 -55 14
0 39 -70 33 -91 -4 -11 -2 -19 4 -19 22 0 10 -29 -21 -55 -18 -14 -25 -23 -15
-19 12 4 17 1 17 -11 0 -12 6 -15 23 -10 19 5 18 3 -6 -12 -15 -10 -25 -24
-22 -31 3 -7 1 -11 -4 -7 -16 9 -40 -6 -38 -25 0 -10 16 -25 33 -35 20 -11 30
-23 27 -31 -3 -9 6 -19 26 -27 30 -13 31 -14 14 -29 -10 -9 -27 -18 -38 -20
-14 -2 -22 -14 -26 -43 -15 -88 32 -244 128 -430 77 -150 123 -245 122 -253
-1 -18 -190 366 -222 453 -23 63 -50 180 -46 202 1 4 1 20 0 34 -1 21 -6 26
-28 27 -16 0 -56 3 -90 7 -61 8 -64 10 -109 63 -36 44 -45 62 -42 88 2 24 -4
37 -27 57 -24 20 -29 32 -29 68 0 54 5 73 29 126 12 25 25 41 33 38 7 -2 30
11 51 30 36 33 39 34 54 17 11 -12 13 -22 6 -34 -10 -18 -1 -28 23 -24 45 6
58 56 14 56 -11 0 -16 4 -11 8 6 4 10 16 10 27 0 14 11 22 40 31 48 14 57 10
46 -19z m73 7 c21 -20 21 -41 1 -24 -10 9 -15 9 -15 1 0 -6 -7 -11 -16 -11 -9
0 -12 -5 -8 -12 4 -7 3 -8 -4 -4 -8 5 -9 13 -3 24 4 9 6 23 4 30 -7 17 23 15
41 -4z m-3754 -64 c6 -11 8 -20 4 -20 -3 0 4 -8 16 -18 29 -24 18 -54 -17 -46
-20 5 -24 3 -23 -12 5 -47 -16 -61 -42 -26 -7 9 -19 17 -25 18 -29 2 -33 5
-33 18 0 16 21 26 54 26 19 0 23 6 24 30 1 51 22 67 42 30z m2047 -86 c3 -10
2 -29 -4 -44 -13 -33 -2 -55 22 -46 26 10 55 -3 55 -23 0 -24 -36 -55 -55 -47
-12 4 -14 0 -10 -17 4 -16 -1 -29 -19 -46 -24 -23 -24 -23 -35 -3 -6 12 -11
43 -11 71 0 48 -1 51 -26 51 -30 0 -84 35 -84 55 0 20 70 32 81 14 7 -11 9 -9
9 8 0 14 9 25 28 31 38 14 42 14 49 -4z m-3332 -14 c18 -7 18 -8 -5 -20 l-24
-13 22 -8 c25 -9 30 -29 8 -29 -8 0 -26 4 -40 10 -23 8 -28 6 -40 -18 -28 -51
-94 -112 -121 -112 -35 0 -42 26 -16 60 11 16 21 33 21 38 0 5 10 22 22 37 20
25 20 28 4 37 -9 5 -14 14 -10 19 6 11 148 10 179 -1z m3030 -60 c8 -16 15
-38 15 -50 0 -18 4 -20 33 -15 24 5 39 1 57 -13 l24 -19 -23 -12 c-12 -7 -29
-10 -37 -7 -9 3 -14 -1 -14 -14 0 -21 -34 -45 -51 -35 -5 4 -9 21 -7 38 2 24
-1 31 -12 28 -57 -15 -60 -14 -60 13 0 15 6 29 14 32 8 3 14 18 14 33 -2 56
23 67 47 21z m-479 5 c30 19 48 12 34 -15 -5 -10 -10 -28 -10 -39 0 -25 -13
-27 -31 -5 -12 14 -14 14 -25 -1 -15 -20 -38 -10 -31 14 2 9 -2 22 -10 29 -23
22 -4 35 24 17 22 -15 26 -15 49 0z m-606 -170 c-9 -11 -8 -23 7 -54 10 -22
21 -41 24 -41 4 0 9 14 13 30 5 27 8 30 26 20 11 -6 20 -20 20 -31 0 -11 4
-18 9 -15 4 3 16 -3 26 -14 16 -18 16 -20 1 -26 -9 -3 -32 -3 -51 0 -30 6 -35
4 -35 -12 0 -20 -36 -59 -46 -49 -4 3 -7 19 -8 34 -1 15 -5 34 -9 41 -5 7 -6
21 -2 31 5 15 2 18 -13 14 -25 -6 -38 13 -22 32 9 11 9 18 -4 31 -20 19 -12
34 17 34 12 0 29 5 37 10 19 12 27 -15 10 -35z m-1241 -51 c2 -2 -7 -8 -20
-13 l-24 -9 29 -11 c21 -9 26 -15 18 -23 -8 -8 -19 -7 -42 2 -27 11 -33 11
-40 -1 -17 -32 -86 -108 -97 -108 -7 -1 -13 -5 -13 -9 0 -12 -32 -11 -47 0 -9
7 -4 24 19 66 17 32 38 65 46 74 13 16 12 19 -9 27 -33 12 -11 20 71 23 55 3
92 -4 109 -18z m1779 0 c33 -23 45 -50 31 -75 -10 -19 -9 -20 11 -14 16 5 29
0 51 -21 36 -34 37 -52 3 -60 -27 -7 -98 -1 -126 11 -13 5 -21 -4 -36 -37 -22
-48 -75 -104 -90 -94 -6 3 -13 25 -17 48 -6 36 -4 43 16 59 l24 19 -27 0 c-31
0 -42 25 -36 76 4 38 26 41 72 9 41 -28 51 -31 40 -12 -6 9 -4 9 8 -1 14 -12
16 -8 16 32 -1 41 14 76 31 76 4 0 17 -7 29 -16z m-2688 -40 c12 -12 12 -14
-3 -14 -22 0 -22 -16 0 -24 11 -5 13 -10 6 -17 -8 -8 -19 -6 -38 7 -25 16 -28
17 -36 1 -12 -21 -98 -87 -113 -87 -6 0 -17 4 -25 9 -11 7 -7 19 19 59 18 28
40 54 49 57 12 5 13 8 2 14 -7 5 -11 13 -8 18 9 14 128 -5 147 -23z m5313 29
c13 -13 -14 -30 -40 -25 -25 5 -25 6 -8 18 20 15 38 18 48 7z m-3743 -49 c0
-8 -4 -14 -10 -14 -18 0 -11 -18 10 -25 29 -9 25 -21 -12 -36 -18 -7 -36 -14
-40 -17 -12 -6 -9 33 2 44 7 7 4 16 -10 29 -29 26 -25 33 20 33 28 1 40 -3 40
-14z m4332 -25 c-3 -18 0 -29 8 -29 7 0 6 -6 -4 -16 -9 -8 -16 -22 -16 -30 0
-8 -4 -14 -10 -14 -5 0 -10 -4 -10 -10 0 -11 32 -1 42 14 5 7 8 7 8 -1 0 -7 5
-13 11 -13 18 0 39 -28 33 -44 -3 -9 -2 -16 3 -16 5 0 10 -6 10 -12 0 -7 3
-26 7 -43 5 -26 1 -33 -27 -49 -18 -11 -35 -19 -39 -18 -5 1 -8 -3 -8 -8 0 -5
5 -10 12 -10 6 0 3 -7 -8 -15 -11 -10 -2 -8 24 5 24 12 42 16 42 10 0 -6 5 -8
10 -5 13 8 13 -5 0 -25 -5 -8 -10 -10 -10 -5 0 6 -6 3 -13 -6 -14 -18 -57 -32
-57 -18 0 5 -5 9 -11 9 -8 0 -9 -4 0 -13 6 -8 8 -17 4 -21 -4 -4 1 -4 11 0 13
5 17 4 13 -3 -10 -16 44 -47 79 -45 17 1 36 -4 43 -11 16 -20 -53 -87 -89 -87
-50 0 -64 -21 -68 -102 -3 -58 1 -83 18 -121 15 -33 26 -47 36 -43 11 4 12 2
2 -14 -9 -15 -9 -38 0 -102 7 -46 12 -118 12 -159 0 -63 -4 -80 -25 -111 -44
-64 -48 -63 198 -65 227 -2 572 -8 778 -13 64 -2 121 0 126 3 15 9 180 10 228
1 22 -4 50 -8 62 -8 12 -1 28 -11 34 -23 18 -33 123 -58 139 -33 3 4 25 -3 50
-16 31 -16 38 -24 25 -25 -111 -4 -159 -12 -179 -28 -13 -11 -19 -11 -31 -1
-8 6 -18 9 -23 6 -6 -3 -38 -9 -73 -12 -60 -6 -80 -7 -111 -3 -23 3 -172 -12
-273 -27 -55 -8 -121 -15 -147 -14 -26 1 -64 -4 -85 -9 -21 -6 -117 -13 -212
-16 -98 -3 -180 -10 -187 -16 -7 -6 -40 -11 -73 -12 l-60 -2 18 -30 c10 -17
84 -113 165 -214 81 -100 152 -194 157 -209 5 -14 31 -53 57 -86 66 -83 67
-85 48 -99 -14 -11 -11 -18 27 -62 24 -27 54 -65 66 -84 27 -37 21 -46 -37
-57 -18 -3 -34 -10 -37 -14 -5 -8 101 -154 164 -227 43 -50 81 -99 81 -106 0
-3 -28 -8 -63 -11 -34 -4 -69 -11 -76 -15 -10 -6 14 -49 91 -167 125 -190 144
-222 136 -229 -3 -3 -183 2 -399 12 -427 19 -1026 22 -1099 6 -36 -9 -4 -11
165 -12 314 -2 362 -5 790 -56 194 -22 414 -45 476 -49 38 -2 66 -27 74 -64 5
-24 3 -32 -8 -32 -27 0 -311 39 -397 55 -47 8 -141 22 -210 30 -69 9 -183 25
-255 35 -162 25 -544 46 -648 36 -43 -5 -77 -9 -75 -11 2 -1 86 -6 188 -9 102
-4 205 -9 230 -12 123 -13 240 -30 665 -94 72 -11 207 -29 300 -40 213 -26
225 -29 203 -41 -10 -5 -26 -6 -40 0 -13 5 -57 12 -98 15 -65 7 -232 28 -310
41 -14 2 -77 11 -140 19 -63 9 -187 26 -275 40 -324 49 -343 51 -635 50 -283
0 -286 0 -435 -32 -82 -18 -168 -35 -190 -38 -21 -3 -43 -8 -47 -10 -4 -3 -8
-3 -8 0 0 3 17 17 37 31 43 29 38 32 -14 10 -58 -25 -50 -9 18 34 35 22 69 44
74 49 6 4 26 13 45 19 19 6 76 26 125 43 50 17 99 33 110 36 11 2 47 11 80 19
33 9 71 17 85 19 44 8 262 27 355 32 50 2 117 7 150 9 33 3 74 6 92 8 17 1 29
-2 26 -6 -3 -5 21 -5 53 -1 33 4 97 7 144 7 47 -1 91 4 98 9 8 7 17 7 27 -2
12 -10 15 -9 15 6 0 16 2 16 10 4 11 -18 111 -23 157 -7 24 8 35 7 48 -3 14
-12 18 -12 25 0 7 12 12 11 28 -3 14 -13 21 -14 30 -5 8 8 18 8 34 1 24 -10
118 -5 100 6 -8 5 -17 57 -13 84 1 4 10 3 21 -3 16 -9 18 -8 14 5 -4 8 -12 15
-20 15 -9 0 -14 11 -14 30 0 23 -3 28 -17 23 -13 -5 -15 -2 -10 11 24 62 -53
69 -348 32 -110 -14 -263 -33 -340 -41 -397 -44 -755 -133 -973 -243 -94 -47
-238 -129 -271 -154 -36 -28 -50 -21 -16 8 17 14 41 34 53 45 34 29 19 35 -27
11 -45 -24 -48 -6 -4 23 13 9 23 19 20 21 -3 3 -29 -13 -58 -35 -67 -51 -84
-53 -38 -4 35 38 17 29 -35 -16 l-28 -26 7 25 c6 20 -5 13 -55 -35 -34 -33
-74 -78 -88 -100 -17 -27 -27 -35 -30 -25 -8 26 -44 60 -152 144 -231 179
-314 223 -590 317 -163 55 -565 141 -640 138 -14 -1 7 -7 45 -14 333 -60 592
-130 767 -207 65 -29 20 -22 -89 14 -241 79 -483 114 -864 124 -223 5 -247 4
-253 -11 -3 -9 -10 -14 -15 -10 -5 3 -9 -10 -8 -29 1 -22 6 -31 12 -25 5 5 16
9 24 9 12 0 12 -2 -2 -13 -18 -13 -12 -30 13 -40 11 -4 10 -6 -4 -6 -10 -1
-25 7 -32 16 -12 17 -13 16 -11 -4 1 -19 7 -23 38 -23 24 0 39 5 43 16 6 16
26 11 26 -7 0 -6 -5 -7 -10 -4 -5 3 -10 1 -10 -4 0 -6 -9 -11 -20 -11 -11 0
-20 -5 -20 -11 0 -6 9 -8 23 -4 21 7 21 6 3 -7 -17 -13 -16 -14 12 -12 16 1
43 5 61 9 20 4 31 3 31 -4 0 -6 -9 -11 -20 -11 -11 0 -20 -3 -20 -7 0 -5 24
-7 52 -6 29 0 41 -1 26 -4 -16 -2 -28 -11 -28 -19 0 -8 -10 -19 -22 -25 l-23
-10 23 5 c14 3 22 -1 22 -10 0 -8 10 -15 23 -15 16 -1 18 -2 5 -6 -29 -7 -21
-22 10 -18 15 2 35 4 46 4 12 1 16 6 12 16 -3 9 0 15 9 15 8 0 15 -4 15 -10 0
-5 11 -12 24 -16 14 -3 27 -13 31 -22 6 -15 8 -15 18 -1 15 20 45 31 52 19 3
-5 12 -7 19 -4 8 3 17 1 20 -4 6 -10 87 -6 116 5 8 4 18 6 21 5 56 -10 91 -9
95 1 7 20 226 2 341 -28 143 -38 222 -65 238 -81 7 -8 22 -14 33 -14 11 0 30
-8 43 -18 13 -10 43 -24 67 -32 24 -7 45 -18 49 -22 10 -18 -6 -20 -39 -5 -83
37 -372 74 -593 76 -66 1 -174 -6 -240 -14 -66 -8 -160 -20 -210 -26 -49 -6
-124 -17 -165 -25 -41 -8 -86 -16 -100 -18 -14 -2 -43 -9 -64 -14 -22 -6 -43
-9 -47 -6 -4 2 -27 -4 -51 -15 -24 -11 -62 -28 -85 -38 -23 -10 -43 -22 -43
-27 0 -4 7 -6 15 -2 8 3 15 2 15 -2 0 -12 -53 -32 -86 -32 -18 0 -34 6 -37 13
-7 18 -61 -16 -65 -42 -2 -11 -12 -23 -23 -26 -10 -4 -19 -10 -19 -15 0 -4
-16 -15 -35 -24 -20 -10 -33 -21 -30 -26 3 -4 -2 -11 -10 -14 -8 -3 -14 -11
-13 -17 2 -6 -6 -13 -17 -15 -71 -11 -252 -33 -313 -37 -125 -9 -93 -17 68
-17 155 0 187 -4 95 -13 -27 -2 -100 -10 -162 -17 -90 -11 -132 -11 -214 -1
-101 12 -103 12 -119 -9 -16 -21 -16 -19 -13 35 2 49 0 57 -19 64 -17 6 -18 9
-5 14 10 4 14 13 10 26 -3 13 -1 21 7 21 7 0 9 8 5 21 -5 15 -2 22 14 26 12 3
21 9 21 14 0 18 40 291 61 410 11 68 23 148 26 177 3 29 11 56 17 60 6 4 60 9
121 12 99 5 110 7 114 25 5 28 67 124 107 166 53 55 81 141 128 399 9 47 19
96 23 110 6 24 5 24 -13 8 -10 -9 -31 -20 -46 -23 -37 -9 -37 9 1 85 27 54 28
61 13 69 -20 11 -12 15 51 26 42 7 43 8 52 78 5 40 4 47 -11 47 -9 0 -33 -16
-52 -36 -19 -19 -36 -34 -38 -32 -2 2 2 20 8 40 8 28 18 38 47 47 23 7 37 7
39 1 5 -14 22 -12 22 3 0 7 11 21 25 31 15 11 27 33 31 55 10 55 30 82 61 79
22 -3 28 2 35 27 14 51 3 72 -43 79 -25 4 -46 3 -53 -4 -7 -7 -5 -10 7 -10 22
0 22 -20 0 -21 -10 -1 -22 -2 -28 -4 -5 -1 -14 -3 -20 -4 -5 0 5 -10 23 -21
17 -11 32 -24 32 -30 0 -22 -29 -20 -65 5 l-38 25 -47 -47 c-81 -82 -130 -124
-139 -118 -5 3 -12 -1 -14 -7 -3 -8 -6 -5 -6 6 -1 14 -4 16 -15 7 -19 -16 -46
-3 -46 21 0 12 17 40 38 64 105 122 119 143 88 131 -9 -4 -16 -3 -16 2 0 5
-12 7 -27 5 -60 -7 -711 -12 -758 -5 -27 3 -69 4 -93 0 -24 -3 -45 -2 -48 3
-3 5 -10 5 -16 2 -7 -4 -5 -10 6 -16 30 -17 18 -31 -24 -25 -22 3 -40 4 -40 2
0 -2 11 -16 25 -31 30 -33 32 -44 5 -44 -11 0 -35 17 -53 37 l-34 36 -29 -20
c-17 -12 -59 -31 -94 -43 -36 -12 -70 -26 -76 -31 -6 -5 -14 -6 -17 -2 -4 3
-7 1 -7 -5 0 -7 -4 -12 -10 -12 -5 0 -7 8 -3 17 6 16 4 16 -15 -1 -23 -20 -31
-9 -9 13 10 11 8 11 -11 2 -27 -14 -54 1 -50 28 4 23 46 54 64 47 8 -3 13 -2
10 2 -3 5 5 17 17 27 16 14 18 20 7 23 -8 3 -16 0 -17 -5 -3 -7 -37 -9 -91 -8
-168 6 -458 7 -577 2 -66 -2 -125 -1 -130 3 -13 11 -184 20 -190 10 -2 -4 -24
-5 -47 -3 -24 3 -65 7 -92 9 -50 4 -86 26 -86 51 0 7 5 13 10 13 13 0 13 57
-1 65 -17 11 27 36 89 50 75 17 177 25 407 30 105 3 206 7 225 10 40 5 460 17
715 20 225 2 226 2 223 20 -3 16 66 108 120 161 l34 32 -23 16 c-36 24 -17 29
68 16 43 -6 89 -13 103 -14 14 -2 38 -11 54 -19 l30 -16 -43 -7 -43 -7 36 -20
c35 -20 48 -47 24 -47 -7 0 -31 9 -53 21 l-40 21 -78 -74 c-69 -67 -82 -88
-55 -88 5 0 7 4 4 9 -6 9 58 13 234 15 58 0 111 5 119 10 9 6 12 5 7 -2 -6
-10 184 -9 304 3 156 15 170 15 170 4 0 -8 4 -8 15 1 10 8 19 9 28 3 7 -6 51
-6 112 -2 55 5 161 8 236 9 95 0 147 4 171 14 22 10 39 11 49 5 18 -11 32 -12
25 -1 -3 5 1 9 9 9 8 0 12 -4 9 -8 -2 -4 10 -7 28 -7 18 1 65 -2 104 -7 45 -5
73 -4 77 2 4 7 23 7 56 0 28 -5 58 -6 68 -3 28 11 -1 23 -51 20 l-44 -2 9 30
c11 41 29 60 51 55 15 -4 17 -1 13 13 -3 10 0 29 6 44 24 52 60 22 64 -52 1
-45 3 -47 36 -53 44 -7 99 -36 99 -52 0 -8 17 -12 48 -13 26 0 317 -3 647 -5
331 -3 606 -9 613 -13 7 -4 12 -2 12 4 0 7 7 9 18 6 9 -4 -8 19 -39 51 -74 77
-116 133 -124 166 -4 15 -11 30 -16 33 -5 3 -9 13 -9 22 0 9 14 -11 30 -46 30
-62 83 -123 170 -194 43 -35 62 -40 110 -29 3 0 14 16 25 34 10 17 44 61 75
97 31 36 66 81 78 100 12 19 22 30 22 24 0 -12 -96 -149 -135 -194 -12 -14
-25 -35 -28 -48 -4 -19 -2 -22 15 -16 39 12 77 14 366 14 l292 0 0 39 c0 21 7
52 15 67 21 41 19 146 -5 240 -11 44 -19 90 -19 104 0 14 10 -9 21 -50 11 -41
26 -86 33 -100 24 -45 27 -94 11 -173 -20 -94 -21 -141 -3 -134 6 2 56 -3 110
-13 l97 -17 0 61 c0 40 6 69 16 84 19 27 55 148 46 156 -3 3 4 6 15 6 19 0 19
-4 11 -56 -5 -31 -15 -66 -23 -78 -20 -27 -21 -162 -2 -169 19 -7 105 102 124
159 12 35 14 66 10 126 -4 43 -9 83 -12 89 -8 11 -64 -31 -64 -48 -1 -7 -5
-13 -11 -13 -5 0 -6 7 -3 17 5 12 3 14 -8 9 -8 -4 -5 -1 5 6 11 7 31 23 44 36
27 26 26 58 -5 140 -12 31 -14 62 -10 116 6 83 4 85 -73 86 -44 0 -49 4 -96
65 -27 35 -38 61 -39 86 -1 26 -9 43 -30 63 -24 22 -29 35 -29 75 0 55 48 163
69 155 7 -3 28 11 48 30 l36 35 15 -21 c11 -15 12 -26 6 -33 -7 -9 -5 -16 5
-25 9 -7 15 -8 15 -2 0 5 11 13 25 16 30 8 33 26 5 33 -26 7 -27 47 -1 65 10
7 32 14 48 15 27 2 29 0 25 -28z m71 17 c25 -19 23 -40 -3 -26 -14 7 -20 7
-20 0 0 -5 -4 -10 -9 -10 -4 0 -6 11 -3 25 5 28 10 30 35 11z m-2465 -88 c19
-33 13 -42 -20 -29 -20 7 -27 5 -37 -10 -16 -27 -27 -17 -29 26 -1 32 0 34 18
25 25 -14 30 -13 30 6 0 22 19 13 38 -18z m-3135 -26 c-10 -2 -28 -18 -41 -37
-12 -19 -29 -35 -37 -35 -18 0 -19 10 -3 47 6 15 10 33 9 40 -3 18 62 21 77 3
11 -13 10 -15 -5 -18z m2837 -64 c0 -5 -4 -7 -9 -4 -5 3 -12 -2 -16 -12 -6
-16 -7 -16 -16 0 -13 23 10 51 29 36 6 -6 12 -15 12 -20z m1840 -103 c0 -8 5
-15 11 -15 6 0 3 -7 -6 -16 -15 -15 -18 -15 -32 -1 -9 8 -13 23 -10 31 8 20
37 21 37 1z m-3070 -15 c0 -4 -7 -13 -16 -21 -11 -9 -14 -22 -10 -41 7 -33 0
-35 -34 -7 -17 14 -21 22 -13 26 8 3 11 14 7 28 -5 21 -2 23 30 23 20 0 36 -3
36 -8z m340 -7 c0 -12 3 -14 11 -6 11 11 59 5 59 -7 0 -12 -50 -50 -66 -50
-11 0 -13 -10 -9 -37 3 -21 1 -45 -4 -53 -8 -12 -13 -12 -30 5 -12 10 -19 20
-16 23 3 3 -5 10 -18 16 -33 17 -29 50 6 54 22 3 27 7 22 20 -20 47 -18 52 14
52 23 0 31 -5 31 -17z m2670 -14 c0 -14 5 -19 14 -16 8 3 30 1 49 -4 48 -13
59 -66 17 -82 -11 -4 -10 -6 5 -7 18 -1 19 -1 3 -11 -10 -5 -18 -19 -18 -29 0
-22 44 -55 60 -45 5 3 10 3 10 -2 -1 -33 -62 -56 -122 -47 -41 7 -78 45 -78
82 0 11 -7 25 -15 32 -27 22 -10 120 20 120 7 0 18 7 25 15 18 21 30 19 30 -6z
m-504 -77 c-1 -22 -7 -47 -15 -56 -13 -16 -12 -17 13 -10 22 5 33 2 50 -16 32
-35 24 -96 -18 -132 l-31 -27 33 3 c17 2 32 -1 32 -5 0 -5 -4 -9 -10 -9 -5 0
-7 -7 -4 -15 7 -18 4 -18 -30 -5 -25 9 -25 8 -13 -13 24 -42 52 -62 85 -58 22
3 25 -29 4 -49 -21 -20 -46 -29 -97 -34 -24 -3 -31 -9 -36 -32 -4 -16 -7 -21
-8 -11 -1 25 -26 47 -57 53 -41 8 -115 109 -98 136 3 5 -6 22 -21 38 -25 27
-27 33 -21 84 4 30 14 60 22 67 8 6 14 18 14 25 0 8 8 14 17 14 9 0 30 12 45
27 23 22 31 25 38 14 4 -8 4 -24 0 -37 -9 -23 -5 -25 38 -10 25 8 30 36 7 36
-18 0 -20 31 -3 48 7 7 24 12 38 12 24 0 26 -4 26 -38z m62 26 c7 -7 12 -16
12 -22 0 -6 -5 -5 -11 1 -6 6 -18 9 -25 6 -8 -3 -14 1 -14 11 0 19 21 21 38 4z
m-3528 -57 c3 -5 12 -11 20 -14 9 -3 2 -8 -19 -13 l-34 -7 34 -18 c27 -14 31
-19 17 -24 -9 -4 -31 1 -48 10 -27 14 -34 15 -41 3 -5 -7 -9 -16 -9 -19 0 -16
-114 -101 -140 -105 -26 -5 -30 -2 -30 17 0 23 35 82 74 127 20 22 20 24 4 36
-10 7 -15 16 -11 19 8 9 177 -3 183 -12z m1917 -55 c-5 -31 -2 -35 24 -46 33
-14 34 -35 1 -35 -11 0 -24 -4 -28 -8 -4 -4 -14 -7 -21 -7 -11 0 -13 8 -8 30
6 26 4 30 -14 30 -12 0 -21 6 -21 15 0 8 6 15 13 15 7 0 18 9 25 20 20 32 35
25 29 -14z m-2884 -33 c79 -73 102 -118 44 -88 l-27 14 15 -29 c19 -36 19 -40
0 -40 -8 0 -22 15 -31 33 -9 17 -18 33 -19 35 -1 1 -13 -2 -27 -7 -13 -5 -53
-10 -89 -11 -84 -3 -91 -2 -84 11 4 6 0 9 -11 7 -13 -2 -19 3 -19 17 0 15 15
24 65 42 36 12 76 23 89 23 20 0 22 4 17 25 -10 38 8 31 77 -32z m2157 -58 c7
-8 10 -21 7 -29 -4 -9 -1 -13 7 -10 16 6 50 -32 41 -47 -5 -7 -24 -10 -56 -6
-39 5 -49 3 -49 -9 0 -21 -30 -64 -45 -64 -16 0 -27 53 -13 61 5 4 3 9 -6 12
-10 4 -16 18 -16 38 0 27 3 30 20 25 11 -3 29 -9 40 -12 17 -5 20 -2 20 25 0
24 4 31 19 31 10 0 24 -7 31 -15z m592 -24 c8 -11 28 -21 45 -23 l32 -3 -29
-35 c-29 -34 -30 -34 -36 -13 -5 18 -11 22 -30 17 -18 -5 -24 -2 -24 9 0 9 4
18 9 21 5 3 7 15 4 26 -7 25 12 26 29 1z m2209 -38 c-6 -21 -11 -51 -12 -68
-1 -21 -3 -24 -6 -10 -6 21 16 130 24 122 2 -3 0 -22 -6 -44z m-1565 -70 c-10
-10 -56 19 -56 36 0 12 3 12 12 3 17 -17 28 -15 29 6 0 10 5 6 11 -11 5 -16 7
-31 4 -34z m-105 20 c-11 -5 -11 -7 0 -14 12 -7 12 -12 1 -30 -11 -17 -11 -20
0 -14 10 6 10 5 1 -5 -10 -11 -15 -11 -28 0 -17 14 -20 50 -4 50 5 0 7 5 4 10
-3 6 1 10 10 10 10 0 14 5 9 13 -4 7 -2 7 7 -2 12 -11 12 -14 0 -18z m-702
-12 c30 24 41 24 41 -1 0 -11 -5 -20 -10 -20 -6 0 -8 -10 -4 -24 7 -30 -14
-46 -31 -23 -7 10 -16 17 -20 17 -4 0 -13 -7 -20 -17 -14 -19 -37 -9 -33 15 1
10 -3 27 -10 38 -16 31 -3 37 33 15 31 -18 32 -18 54 0z m-1514 -41 c3 -5 1
-10 -6 -10 -7 0 -28 -16 -46 -36 -18 -21 -36 -34 -40 -31 -12 13 20 66 46 76
35 13 39 13 46 1z m3872 -133 c-2 -23 -3 -1 -3 48 0 50 1 68 3 42 2 -26 2 -67
0 -90z m-4298 -96 c55 -52 62 -66 31 -58 -23 6 -24 3 -10 -24 8 -15 7 -19 -4
-19 -9 0 -18 11 -22 25 -6 24 -8 24 -78 19 -81 -7 -136 7 -117 30 6 7 38 21
71 31 34 10 60 24 60 32 0 23 16 15 69 -36z m380 -27 l-22 -12 21 -6 c12 -4
22 -14 22 -23 0 -11 -5 -13 -17 -8 -44 19 -61 17 -74 -7 -26 -50 -84 -103
-117 -106 -24 -3 -32 0 -32 13 0 17 43 98 68 127 13 16 13 18 -2 24 -34 13
-13 23 57 26 39 2 82 -1 95 -6 l23 -10 -22 -12z m1713 -121 c15 -13 22 -14 44
-4 33 14 41 8 27 -22 -6 -12 -14 -31 -18 -42 -6 -20 -7 -20 -25 2 -15 20 -20
21 -30 8 -18 -22 -29 -9 -28 35 0 45 4 47 30 23z m-1064 -558 c30 -10 28 -21
-5 -30 l-28 -8 28 -10 c28 -11 38 -37 13 -37 -7 0 -26 6 -41 14 -27 14 -29 13
-78 -40 -54 -59 -75 -74 -117 -80 -34 -6 -47 20 -25 50 8 12 26 37 39 56 13
19 31 41 39 49 15 12 15 15 -6 32 -22 20 -22 20 68 15 50 -2 100 -8 113 -11z
m1139 -1352 c-11 -3 -16 -11 -13 -19 3 -8 1 -14 -4 -14 -6 0 -13 -1 -17 -2 -3
-2 -7 6 -9 17 -3 17 2 21 29 22 18 1 24 -1 14 -4z m2722 -218 c231 -19 290
-26 586 -70 620 -92 718 -104 730 -85 8 13 15 6 80 -75 21 -28 45 -53 52 -58
7 -4 10 -14 7 -22 -11 -27 -244 -19 -889 29 -110 8 -333 22 -495 31 -398 22
-470 35 -175 31 282 -4 232 11 -100 29 -192 11 -217 13 -228 24 -6 6 -22 11
-36 12 l-26 0 25 12 c44 21 484 14 710 -11 107 -11 231 -24 275 -27 44 -4 107
-13 140 -21 33 -7 85 -13 115 -13 l55 1 -43 13 c-23 8 -75 16 -115 19 -39 3
-106 10 -147 16 -370 50 -631 71 -866 69 -99 -1 -207 -6 -239 -11 -44 -7 -61
-6 -64 3 -2 7 -6 7 -10 2 -3 -6 -18 -13 -33 -17 -24 -5 -28 -3 -28 14 0 11 5
20 11 20 13 0 44 30 32 31 -28 4 195 50 282 58 125 13 196 12 394 -4z m-1225
-155 c4 -28 10 -39 19 -35 6 4 4 0 -7 -9 -17 -14 -21 -13 -52 17 -19 17 -34
38 -34 46 0 10 6 7 19 -7 21 -25 33 -28 30 -9 -7 59 15 56 25 -3z m2864 -101
c12 -5 22 -17 22 -28 0 -16 -9 -21 -52 -26 -72 -9 -130 -3 -136 14 -3 8 0 11
7 7 6 -4 13 -1 16 6 3 8 18 15 33 16 15 1 31 9 37 17 10 15 20 14 73 -6z"/>
<path d="M5631 4306 c-8 -13 -11 -29 -7 -34 3 -6 0 -13 -6 -15 -8 -4 -7 -6 3
-6 10 -1 19 9 22 22 2 12 8 30 12 40 11 26 -10 20 -24 -7z"/>
<path d="M6357 3792 c-7 -11 10 -89 18 -80 1 2 0 23 -4 48 -4 28 -9 40 -14 32z"/>
<path d="M5256 2433 c-4 -5 -170 -9 -369 -10 -199 -1 -371 -3 -382 -3 -28 -2
-201 -2 -320 0 -55 0 -122 1 -150 1 -27 1 -125 0 -216 -1 l-166 -2 5 -24 c3
-16 -1 -26 -12 -30 -20 -8 -21 -34 -2 -34 8 0 21 -6 28 -13 7 -7 47 -25 88
-41 145 -56 308 -141 318 -167 2 -5 8 -9 12 -9 21 0 297 -204 375 -277 116
-108 252 -307 305 -446 7 -20 18 -36 24 -34 5 2 15 31 22 64 39 191 176 399
374 570 l90 77 -7 51 c-5 27 -8 114 -7 193 0 78 0 142 -1 142 -1 0 -5 -3 -9
-7z"/>
<path d="M5510 2429 c0 -3 8 -17 19 -30 10 -13 20 -28 22 -34 11 -27 52 -85
60 -85 11 0 177 73 216 96 44 25 50 44 15 45 -15 1 -31 0 -37 -1 -11 -3 -29
-2 -187 8 -60 4 -108 4 -108 1z"/>
<path d="M5310 2404 c-6 -15 -8 -74 -5 -137 3 -62 5 -121 5 -132 1 -51 15 -50
97 6 43 30 90 60 106 67 15 6 27 17 28 24 0 7 2 24 3 38 3 26 -30 87 -70 130
-20 22 -34 26 -89 28 -62 3 -66 1 -75 -24z"/>
<path d="M6841 1859 c-90 -48 -209 -117 -241 -139 -11 -8 -9 -9 10 -4 14 4 37
15 52 25 14 11 31 19 37 19 6 0 11 5 11 10 0 6 5 10 11 10 5 0 7 -4 4 -10 -3
-6 1 -7 9 -4 9 3 13 11 10 16 -4 6 -1 8 7 6 17 -7 51 10 44 21 -2 5 15 14 40
20 59 15 155 59 155 71 0 23 -61 6 -149 -41z"/>
<path d="M7030 1743 c-8 -3 -143 -56 -300 -118 -157 -63 -323 -128 -370 -145
-47 -18 -132 -52 -190 -77 -58 -25 -129 -56 -158 -68 -30 -12 -59 -28 -65 -35
-7 -6 13 -1 43 11 64 26 409 146 460 160 19 6 46 14 60 19 14 4 70 22 125 39
263 80 461 144 472 153 10 8 9 16 -3 39 -14 28 -37 35 -74 22z"/>
<path d="M6950 1519 c-63 -16 -180 -47 -260 -69 -80 -22 -206 -56 -280 -76
-279 -75 -473 -145 -660 -239 -141 -71 -282 -167 -267 -182 5 -4 12 -1 17 7 5
8 13 15 17 16 25 3 73 28 73 37 0 7 12 13 26 14 15 0 29 5 33 11 3 5 24 15 46
22 22 7 54 17 70 22 17 6 39 14 50 18 11 4 54 18 95 30 41 12 87 26 101 32 28
10 152 35 239 48 30 4 66 10 80 13 51 11 387 62 475 72 22 2 51 6 65 8 14 3
77 12 140 21 63 10 125 21 137 26 29 12 39 61 19 101 -9 18 -16 38 -16 44 0 7
-7 18 -15 25 -8 7 -13 15 -11 19 10 16 -69 7 -174 -20z"/>
<path d="M7277 1294 c-3 -3 -126 -23 -273 -44 -147 -22 -272 -42 -278 -44 -23
-9 40 -5 137 9 93 14 423 55 440 55 4 0 7 4 7 9 0 10 -26 22 -33 15z"/>
<path d="M6585 1198 c-33 -5 -134 -20 -225 -34 -178 -27 -249 -41 -213 -43 12
-1 44 3 70 9 26 5 66 11 88 14 22 2 85 11 140 19 55 9 135 19 178 23 42 3 80
10 83 15 6 11 -40 10 -121 -3z"/>
<path d="M6012 1103 c-35 -8 -61 -17 -58 -20 4 -5 50 4 141 28 27 6 27 7 5 7
-14 0 -53 -7 -88 -15z"/>
<path d="M5873 1067 c-23 -7 -45 -15 -49 -19 -12 -12 7 -9 66 12 60 20 50 25
-17 7z"/>
<path d="M5765 1030 c-11 -5 -32 -11 -47 -14 -16 -4 -28 -11 -28 -17 0 -8 5
-8 15 1 8 6 19 9 24 6 6 -4 27 3 48 14 37 19 28 27 -12 10z"/>
<path d="M2328 23 c-29 -7 -21 -25 10 -21 15 2 26 7 25 13 -2 12 -12 14 -35 8z"/>
</g>
</svg>
